<svg id="Layer_1_copy_4" data-name="Layer 1 copy 4" xmlns="http://www.w3.org/2000/svg" xmlns:xlink="http://www.w3.org/1999/xlink" viewBox="0 0 1595.81 1128.41"><defs><style>.cls-1,.cls-67{fill:#fff;}.cls-1{stroke:#000;stroke-miterlimit:10;}.cls-2{fill:#009245;}.cls-3{fill:url(#linear-gradient);}.cls-4{fill:url(#linear-gradient-2);}.cls-5{fill:url(#linear-gradient-3);}.cls-6{fill:url(#linear-gradient-4);}.cls-7{fill:url(#linear-gradient-5);}.cls-8{fill:url(#linear-gradient-6);}.cls-9{fill:url(#linear-gradient-7);}.cls-10{fill:url(#linear-gradient-8);}.cls-11{fill:url(#linear-gradient-9);}.cls-12{fill:url(#linear-gradient-10);}.cls-13{fill:url(#linear-gradient-11);}.cls-14{fill:url(#linear-gradient-12);}.cls-15{fill:url(#linear-gradient-13);}.cls-16{fill:url(#linear-gradient-14);}.cls-17{fill:url(#linear-gradient-15);}.cls-18{fill:url(#linear-gradient-16);}.cls-19{fill:url(#linear-gradient-17);}.cls-20{fill:url(#linear-gradient-18);}.cls-21{fill:url(#linear-gradient-19);}.cls-22{fill:url(#linear-gradient-21);}.cls-23{fill:url(#linear-gradient-22);}.cls-24{fill:url(#linear-gradient-23);}.cls-25{fill:url(#linear-gradient-24);}.cls-26{fill:url(#linear-gradient-25);}.cls-27{fill:url(#linear-gradient-26);}.cls-28{fill:url(#linear-gradient-27);}.cls-29{fill:url(#linear-gradient-28);}.cls-30{fill:url(#linear-gradient-29);}.cls-31{fill:url(#linear-gradient-30);}.cls-32{fill:url(#linear-gradient-31);}.cls-33{fill:#007c45;}.cls-34{fill:#006b45;}.cls-35{fill:#008345;}.cls-36{fill:#007a45;}.cls-37{fill:url(#linear-gradient-32);}.cls-38{fill:url(#linear-gradient-33);}.cls-39{fill:url(#linear-gradient-34);}.cls-40{fill:url(#linear-gradient-35);}.cls-41{fill:url(#linear-gradient-36);}.cls-42{fill:url(#linear-gradient-37);}.cls-43{fill:url(#linear-gradient-38);}.cls-44{fill:url(#linear-gradient-39);}.cls-45{fill:url(#linear-gradient-40);}.cls-46{fill:url(#linear-gradient-41);}.cls-47{fill:url(#linear-gradient-42);}.cls-48{fill:url(#linear-gradient-43);}.cls-49{fill:url(#linear-gradient-44);}.cls-50{fill:url(#linear-gradient-45);}.cls-51{fill:url(#linear-gradient-46);}.cls-52{fill:url(#linear-gradient-47);}.cls-53{fill:url(#linear-gradient-48);}.cls-54{fill:url(#linear-gradient-49);}.cls-55{fill:url(#linear-gradient-50);}.cls-56{fill:url(#linear-gradient-52);}.cls-57{fill:url(#linear-gradient-53);}.cls-58{fill:url(#linear-gradient-54);}.cls-59{fill:url(#linear-gradient-55);}.cls-60{fill:url(#linear-gradient-56);}.cls-61{fill:url(#linear-gradient-57);}.cls-62{fill:url(#linear-gradient-58);}.cls-63{fill:url(#linear-gradient-59);}.cls-64{fill:url(#linear-gradient-60);}.cls-65{fill:url(#linear-gradient-61);}.cls-66{fill:url(#linear-gradient-62);}</style><linearGradient id="linear-gradient" x1="149.22" y1="511.99" x2="216.49" y2="511.99" gradientUnits="userSpaceOnUse"><stop offset="0" stop-color="#39b54a"/><stop offset="1" stop-color="#259834"/></linearGradient><linearGradient id="linear-gradient-2" x1="149.22" y1="584.76" x2="216.49" y2="584.76" gradientUnits="userSpaceOnUse"><stop offset="0" stop-color="#39b567"/><stop offset="1" stop-color="#269f4d"/></linearGradient><linearGradient id="linear-gradient-3" x1="111.23" y1="539.86" x2="159.51" y2="698.52" xlink:href="#linear-gradient"/><linearGradient id="linear-gradient-4" x1="231.89" y1="391.18" x2="314.67" y2="577.44" xlink:href="#linear-gradient"/><linearGradient id="linear-gradient-5" x1="224.52" y1="305.88" x2="277.41" y2="522.03" xlink:href="#linear-gradient"/><linearGradient id="linear-gradient-6" x1="360.3" y1="221.47" x2="413.19" y2="433.02" xlink:href="#linear-gradient"/><linearGradient id="linear-gradient-7" x1="378.43" y1="252.24" x2="438.21" y2="535.06" xlink:href="#linear-gradient"/><linearGradient id="linear-gradient-8" x1="440.98" y1="263.71" x2="452.48" y2="551.13" xlink:href="#linear-gradient"/><linearGradient id="linear-gradient-9" x1="523.61" y1="204.32" x2="512.12" y2="503.24" xlink:href="#linear-gradient"/><linearGradient id="linear-gradient-10" x1="589.4" y1="229.19" x2="598.6" y2="574.1" xlink:href="#linear-gradient-2"/><linearGradient id="linear-gradient-11" x1="695.74" y1="172.52" x2="681.94" y2="473.74" xlink:href="#linear-gradient-2"/><linearGradient id="linear-gradient-12" x1="743.78" y1="86.16" x2="743.78" y2="565.55" xlink:href="#linear-gradient-2"/><linearGradient id="linear-gradient-13" x1="104.9" y1="680.73" x2="258.9" y2="680.73" gradientUnits="userSpaceOnUse"><stop offset="0" stop-color="#075"/><stop offset="1" stop-color="#009245"/><stop offset="1" stop-color="#007837"/></linearGradient><linearGradient id="linear-gradient-14" x1="104.9" y1="756.61" x2="258.9" y2="756.61" xlink:href="#linear-gradient-13"/><linearGradient id="linear-gradient-15" x1="104.9" y1="828.03" x2="258.9" y2="828.03" xlink:href="#linear-gradient-13"/><linearGradient id="linear-gradient-16" x1="189.71" y1="857.05" x2="345.94" y2="857.05" xlink:href="#linear-gradient-13"/><linearGradient id="linear-gradient-17" x1="345.94" y1="939.63" x2="524.5" y2="939.63" xlink:href="#linear-gradient-13"/><linearGradient id="linear-gradient-18" x1="524.5" y1="995.43" x2="716.44" y2="995.43" xlink:href="#linear-gradient-13"/><linearGradient id="linear-gradient-19" x1="689.66" y1="995.43" x2="797.9" y2="995.43" xlink:href="#linear-gradient-13"/><linearGradient id="linear-gradient-21" x1="453.08" y1="939.63" x2="711.98" y2="939.63" xlink:href="#linear-gradient-13"/><linearGradient id="linear-gradient-22" x1="258.9" y1="857.05" x2="457.54" y2="857.05" xlink:href="#linear-gradient-13"/><linearGradient id="linear-gradient-23" x1="447.81" y1="735.56" x2="344.33" y2="783.85" xlink:href="#linear-gradient-13"/><linearGradient id="linear-gradient-24" x1="386.12" y1="747.69" x2="457.54" y2="747.69" gradientUnits="userSpaceOnUse"><stop offset="0" stop-color="#075"/><stop offset="1" stop-color="#006837"/></linearGradient><linearGradient id="linear-gradient-25" x1="386.12" y1="687.42" x2="533.42" y2="687.42" xlink:href="#linear-gradient-24"/><linearGradient id="linear-gradient-26" x1="386.12" y1="628.28" x2="533.42" y2="628.28" xlink:href="#linear-gradient-24"/><linearGradient id="linear-gradient-27" x1="398.95" y1="609.31" x2="533.42" y2="609.31" xlink:href="#linear-gradient-24"/><linearGradient id="linear-gradient-28" x1="506.64" y1="609.31" x2="689.15" y2="609.31" xlink:href="#linear-gradient-24"/><linearGradient id="linear-gradient-29" x1="658.41" y1="639.17" x2="797.9" y2="639.17" xlink:href="#linear-gradient-24"/><linearGradient id="linear-gradient-30" x1="533.42" y1="639.17" x2="689.15" y2="639.17" xlink:href="#linear-gradient-24"/><linearGradient id="linear-gradient-31" x1="658.41" y1="665.99" x2="797.9" y2="665.99" xlink:href="#linear-gradient-24"/><linearGradient id="linear-gradient-32" x1="1421.65" y1="422.5" x2="1410.15" y2="588.05" gradientUnits="userSpaceOnUse"><stop offset="0" stop-color="#95cb40"/><stop offset="1" stop-color="#28a250"/></linearGradient><linearGradient id="linear-gradient-33" x1="1415.61" y1="529.99" x2="1401.81" y2="621.97" xlink:href="#linear-gradient-32"/><linearGradient id="linear-gradient-34" x1="39.16" y1="623.66" x2="87.44" y2="782.32" gradientTransform="matrix(-1, 0, 0, 1, 1523.74, -83.8)" xlink:href="#linear-gradient-32"/><linearGradient id="linear-gradient-35" x1="159.82" y1="474.98" x2="242.6" y2="661.23" gradientTransform="matrix(-1, 0, 0, 1, 1523.74, -83.8)" gradientUnits="userSpaceOnUse"><stop offset="0" stop-color="#a6dd4f"/><stop offset="1" stop-color="#46a73c"/></linearGradient><linearGradient id="linear-gradient-36" x1="152.45" y1="389.68" x2="205.34" y2="605.82" xlink:href="#linear-gradient-35"/><linearGradient id="linear-gradient-37" x1="288.23" y1="305.27" x2="341.12" y2="516.81" xlink:href="#linear-gradient-35"/><linearGradient id="linear-gradient-38" x1="306.36" y1="336.03" x2="366.14" y2="618.86" xlink:href="#linear-gradient-35"/><linearGradient id="linear-gradient-39" x1="368.91" y1="347.51" x2="380.41" y2="634.93" xlink:href="#linear-gradient-35"/><linearGradient id="linear-gradient-40" x1="451.54" y1="288.12" x2="440.05" y2="587.04" xlink:href="#linear-gradient-35"/><linearGradient id="linear-gradient-41" x1="517.33" y1="312.99" x2="526.53" y2="657.9" gradientTransform="matrix(-1, 0, 0, 1, 1523.74, -83.8)" xlink:href="#linear-gradient-32"/><linearGradient id="linear-gradient-42" x1="892.38" y1="135.77" x2="807.3" y2="526.66" xlink:href="#linear-gradient-32"/><linearGradient id="linear-gradient-43" x1="671.71" y1="169.96" x2="671.71" y2="649.35" gradientTransform="matrix(-1, 0, 0, 1, 1523.74, -83.8)" xlink:href="#linear-gradient-2"/><linearGradient id="linear-gradient-44" x1="1336.91" y1="680.73" x2="1490.91" y2="680.73" gradientUnits="userSpaceOnUse"><stop offset="0" stop-color="#006837"/><stop offset="1" stop-color="#004a00"/></linearGradient><linearGradient id="linear-gradient-45" x1="1336.91" y1="756.61" x2="1490.91" y2="756.61" xlink:href="#linear-gradient-44"/><linearGradient id="linear-gradient-46" x1="1336.91" y1="828.03" x2="1490.91" y2="828.03" xlink:href="#linear-gradient-44"/><linearGradient id="linear-gradient-47" x1="1249.86" y1="857.05" x2="1406.1" y2="857.05" xlink:href="#linear-gradient-44"/><linearGradient id="linear-gradient-48" x1="1071.31" y1="939.63" x2="1249.86" y2="939.63" xlink:href="#linear-gradient-24"/><linearGradient id="linear-gradient-49" x1="879.37" y1="995.43" x2="1071.31" y2="995.43" xlink:href="#linear-gradient-24"/><linearGradient id="linear-gradient-50" x1="797.9" y1="995.43" x2="906.15" y2="995.43" xlink:href="#linear-gradient-13"/><linearGradient id="linear-gradient-52" x1="879.37" y1="939.63" x2="1138.27" y2="939.63" xlink:href="#linear-gradient-24"/><linearGradient id="linear-gradient-53" x1="1138.27" y1="857.05" x2="1336.91" y2="857.05" xlink:href="#linear-gradient-44"/><linearGradient id="linear-gradient-54" x1="1138.27" y1="747.69" x2="1336.91" y2="747.69" xlink:href="#linear-gradient-44"/><linearGradient id="linear-gradient-55" x1="1138.27" y1="747.69" x2="1209.69" y2="747.69" xlink:href="#linear-gradient-44"/><linearGradient id="linear-gradient-56" x1="1062.38" y1="687.42" x2="1209.69" y2="687.42" xlink:href="#linear-gradient-44"/><linearGradient id="linear-gradient-57" x1="1107.29" y1="690.77" x2="1236.06" y2="575.8" xlink:href="#linear-gradient-44"/><linearGradient id="linear-gradient-58" x1="1062.38" y1="609.31" x2="1196.86" y2="609.31" xlink:href="#linear-gradient-44"/><linearGradient id="linear-gradient-59" x1="906.66" y1="609.31" x2="1089.17" y2="609.31" xlink:href="#linear-gradient-44"/><linearGradient id="linear-gradient-60" x1="797.9" y1="639.17" x2="937.4" y2="639.17" xlink:href="#linear-gradient-44"/><linearGradient id="linear-gradient-61" x1="906.66" y1="639.17" x2="1062.38" y2="639.17" xlink:href="#linear-gradient-44"/><linearGradient id="linear-gradient-62" x1="772.47" y1="761.51" x2="869.04" y2="641.94" xlink:href="#linear-gradient-24"/></defs><title>SlimeIcon</title><polygon class="cls-1" points="506.64 540.12 451.4 178.55 398.95 578.06 506.64 540.12"/><polygon class="cls-2" points="797.9 0 797.9 1128.41 479.65 1103.83 243.61 1043.64 73.65 950.79 0 797.9 16.65 635.02 70.58 469.34 189.71 281.41 362.19 129.38 572.6 32.27 797.9 0"/><polygon points="328.09 432.99 216.49 531.19 189.71 638.32 258.9 723.13 386.12 651.71 412.9 508.87 328.09 432.99"/><polygon points="797.9 768.89 658.41 724.25 533.42 679.61 457.54 724.25 457.54 844.77 560.21 882.27 716.44 934.05 797.9 934.05 797.9 768.89"/><polygon class="cls-3" points="189.71 459.77 216.49 531.19 149.22 564.2 189.71 459.77"/><polygon class="cls-4" points="189.71 638.32 216.49 531.19 149.22 564.2 189.71 638.32"/><polygon class="cls-5" points="104.9 678.5 189.71 638.32 149.22 564.2 104.9 678.5"/><polygon class="cls-6" points="189.71 459.77 328.09 432.99 216.49 531.19 189.71 459.77"/><polygon class="cls-7" points="283.45 321.39 328.09 432.99 189.71 459.77 283.45 321.39"/><polygon class="cls-8" points="451.4 178.55 328.09 432.99 283.45 321.39 451.4 178.55"/><polygon class="cls-9" points="412.9 508.87 328.09 432.99 451.4 178.55 412.9 508.87"/><polygon class="cls-10" points="506.64 540.12 398.95 578.06 451.4 178.55 506.64 540.12"/><polygon class="cls-11" points="600.38 111.59 506.64 540.12 451.4 178.55 600.38 111.59"/><polygon class="cls-12" points="689.15 555.21 600.38 111.59 506.64 540.12 689.15 555.21"/><polygon class="cls-13" points="797.9 84.81 689.15 555.21 600.38 111.59 797.9 84.81"/><polygon class="cls-14" points="798.16 565.55 689.4 556.56 798.16 86.16 798.16 565.55"/><polygon class="cls-15" points="104.9 678.5 258.9 723.13 189.71 638.32 104.9 678.5"/><polygon class="cls-16" points="104.9 834.73 258.9 723.13 104.9 678.5 104.9 834.73"/><polygon class="cls-17" points="258.9 723.13 189.71 932.93 104.9 834.73 258.9 723.13"/><polygon class="cls-18" points="345.94 990.96 189.71 932.93 258.9 723.13 345.94 990.96"/><polygon class="cls-19" points="524.5 1035.6 457.54 843.66 345.94 990.96 524.5 1035.6"/><polygon class="cls-20" points="689.66 1057.92 716.44 932.93 524.5 1035.6 689.66 1057.92"/><polygon class="cls-21" points="797.9 932.93 689.66 1057.92 716.44 932.93 797.9 932.93"/><polygon class="cls-21" points="797.9 1057.92 797.9 932.93 689.66 1057.92 797.9 1057.92"/><polygon class="cls-22" points="711.98 932.93 453.08 843.66 520.03 1035.6 711.98 932.93"/><polygon class="cls-23" points="258.9 723.13 457.54 843.66 345.94 990.96 258.9 723.13"/><polygon class="cls-24" points="386.12 651.71 457.54 843.66 258.9 723.13 386.12 651.71"/><polygon class="cls-25" points="457.54 723.13 386.12 651.71 457.54 843.66 457.54 723.13"/><polygon class="cls-26" points="533.42 678.5 386.12 651.71 457.54 723.13 533.42 678.5"/><polygon class="cls-27" points="398.95 578.06 533.42 678.5 386.12 651.71 398.95 578.06"/><polygon class="cls-28" points="506.64 540.12 533.42 678.5 398.95 578.06 506.64 540.12"/><polygon class="cls-29" points="689.15 555.21 533.42 678.5 506.64 540.12 689.15 555.21"/><polygon class="cls-30" points="797.9 564.2 658.41 723.13 689.15 555.21 797.9 564.2"/><polygon class="cls-31" points="533.42 678.5 658.41 723.13 689.15 555.21 533.42 678.5"/><polygon class="cls-32" points="797.9 767.77 797.9 564.2 658.41 723.13 797.9 767.77"/><polygon class="cls-2" points="797.9 0 699.14 98.2 797.9 84.81 797.9 0"/><polygon class="cls-33" points="658.41 19.98 699.14 98.2 797.9 0 658.41 19.98"/><polygon class="cls-33" points="572.6 32.27 600.38 111.59 658.41 19.98 572.6 32.27"/><polygon class="cls-2" points="699.14 98.2 658.41 19.98 600.38 111.59 699.14 98.2"/><polygon class="cls-2" points="572.6 32.27 525.89 145.07 600.38 111.59 572.6 32.27"/><polygon class="cls-33" points="466.19 81.38 525.89 145.07 572.6 32.27 466.19 81.38"/><polygon class="cls-33" points="362.19 129.38 451.4 178.55 466.19 81.38 362.19 129.38"/><polygon class="cls-2" points="525.89 145.07 466.19 81.38 451.4 178.55 525.89 145.07"/><polygon class="cls-2" points="362.19 129.38 367.43 249.97 451.4 178.55 362.19 129.38"/><polygon class="cls-33" points="189.71 281.41 367.43 249.97 362.19 129.38 189.71 281.41"/><polygon class="cls-2" points="283.45 321.39 367.43 249.97 189.71 281.41 283.45 321.39"/><polygon class="cls-33" points="70.58 469.34 283.45 321.39 189.71 281.41 70.58 469.34"/><polygon class="cls-2" points="189.71 459.77 70.58 469.34 283.45 321.39 189.71 459.77"/><polygon class="cls-34" points="104.9 678.5 70.58 469.34 189.71 459.77 104.9 678.5"/><polygon class="cls-2" points="16.65 635.02 104.9 678.5 70.58 469.34 16.65 635.02"/><polygon class="cls-34" points="0 797.9 104.9 678.5 16.65 635.02 0 797.9"/><polygon class="cls-35" points="104.9 834.73 104.9 678.5 0 797.9 104.9 834.73"/><polygon class="cls-34" points="73.65 950.79 104.9 834.73 0 797.9 73.65 950.79"/><polygon class="cls-36" points="189.71 932.93 73.65 950.79 104.9 834.73 189.71 932.93"/><polygon class="cls-34" points="243.61 1043.64 189.71 932.93 73.65 950.79 243.61 1043.64"/><polygon class="cls-36" points="524.5 1035.6 243.61 1043.64 189.71 932.93 524.5 1035.6"/><polygon class="cls-34" points="479.65 1103.83 524.5 1035.6 243.61 1043.64 479.65 1103.83"/><polygon class="cls-36" points="689.66 1057.92 479.65 1103.83 524.5 1035.6 689.66 1057.92"/><polygon class="cls-34" points="797.9 1128.41 689.66 1057.92 479.65 1103.83 797.9 1128.41"/><polygon class="cls-36" points="797.9 1057.92 689.66 1057.92 797.9 1128.41 797.9 1057.92"/><polygon class="cls-1" points="1089.17 540.12 1144.41 178.55 1196.86 578.06 1089.17 540.12"/><polygon class="cls-2" points="797.9 0 797.9 1128.41 1116.15 1103.83 1352.2 1043.64 1522.15 950.79 1595.81 797.9 1579.16 635.02 1525.23 469.34 1406.1 281.41 1233.62 129.38 1023.21 32.27 797.9 0"/><polygon points="1267.72 432.99 1379.31 531.19 1406.1 638.32 1336.91 723.13 1209.69 651.71 1182.91 508.87 1267.72 432.99"/><polygon points="797.9 768.89 937.4 724.25 1062.38 679.61 1138.27 724.25 1138.27 844.77 1035.6 882.27 879.37 934.05 797.9 934.05 797.9 768.89"/><polygon class="cls-37" points="1406.1 459.77 1379.31 531.19 1446.59 564.2 1406.1 459.77"/><polygon class="cls-38" points="1406.1 638.32 1379.31 531.19 1446.59 564.2 1406.1 638.32"/><polygon class="cls-39" points="1490.91 678.5 1406.1 638.32 1446.59 564.2 1490.91 678.5"/><polygon class="cls-40" points="1406.1 459.77 1267.72 432.99 1379.31 531.19 1406.1 459.77"/><polygon class="cls-41" points="1312.36 321.39 1267.72 432.99 1406.1 459.77 1312.36 321.39"/><polygon class="cls-42" points="1144.41 178.55 1267.72 432.99 1312.36 321.39 1144.41 178.55"/><polygon class="cls-43" points="1182.91 508.87 1267.72 432.99 1144.41 178.55 1182.91 508.87"/><polygon class="cls-44" points="1089.17 540.12 1196.86 578.06 1144.41 178.55 1089.17 540.12"/><polygon class="cls-45" points="995.43 111.59 1089.17 540.12 1144.41 178.55 995.43 111.59"/><polygon class="cls-46" points="906.66 555.21 995.43 111.59 1089.17 540.12 906.66 555.21"/><polygon class="cls-47" points="797.9 84.81 906.66 555.21 995.43 111.59 797.9 84.81"/><polygon class="cls-48" points="797.65 565.55 906.41 556.56 797.65 86.16 797.65 565.55"/><polygon class="cls-49" points="1490.91 678.5 1336.91 723.13 1406.1 638.32 1490.91 678.5"/><polygon class="cls-50" points="1490.91 834.73 1336.91 723.13 1490.91 678.5 1490.91 834.73"/><polygon class="cls-51" points="1336.91 723.13 1406.1 932.93 1490.91 834.73 1336.91 723.13"/><polygon class="cls-52" points="1249.86 990.96 1406.1 932.93 1336.91 723.13 1249.86 990.96"/><polygon class="cls-53" points="1071.31 1035.6 1138.27 843.66 1249.86 990.96 1071.31 1035.6"/><polygon class="cls-54" points="906.15 1057.92 879.37 932.93 1071.31 1035.6 906.15 1057.92"/><polygon class="cls-55" points="797.9 932.93 906.15 1057.92 879.37 932.93 797.9 932.93"/><polygon class="cls-55" points="797.9 1057.92 797.9 932.93 906.15 1057.92 797.9 1057.92"/><polygon class="cls-56" points="879.37 932.93 1138.27 843.66 1071.31 1035.6 879.37 932.93"/><polygon class="cls-57" points="1336.91 723.13 1138.27 843.66 1249.86 990.96 1336.91 723.13"/><polygon class="cls-58" points="1209.69 651.71 1138.27 843.66 1336.91 723.13 1209.69 651.71"/><polygon class="cls-59" points="1138.27 723.13 1209.69 651.71 1138.27 843.66 1138.27 723.13"/><polygon class="cls-60" points="1062.38 678.5 1209.69 651.71 1138.27 723.13 1062.38 678.5"/><polygon class="cls-61" points="1196.86 578.06 1062.38 678.5 1209.69 651.71 1196.86 578.06"/><polygon class="cls-62" points="1089.17 540.12 1062.38 678.5 1196.86 578.06 1089.17 540.12"/><polygon class="cls-63" points="906.66 555.21 1062.38 678.5 1089.17 540.12 906.66 555.21"/><polygon class="cls-64" points="797.9 564.2 937.4 723.13 906.66 555.21 797.9 564.2"/><polygon class="cls-65" points="1062.38 678.5 937.4 723.13 906.66 555.21 1062.38 678.5"/><polygon class="cls-66" points="797.9 767.77 797.9 564.2 937.4 723.13 797.9 767.77"/><polygon class="cls-2" points="797.9 0 896.66 98.2 797.9 84.81 797.9 0"/><polygon class="cls-33" points="937.4 19.98 896.66 98.2 797.9 0 937.4 19.98"/><polygon class="cls-33" points="1023.21 32.27 995.43 111.59 937.4 19.98 1023.21 32.27"/><polygon class="cls-2" points="896.66 98.2 937.4 19.98 995.43 111.59 896.66 98.2"/><polygon class="cls-2" points="1023.21 32.27 1069.92 145.07 995.43 111.59 1023.21 32.27"/><polygon class="cls-33" points="1129.62 81.38 1069.92 145.07 1023.21 32.27 1129.62 81.38"/><polygon class="cls-33" points="1233.62 129.38 1144.41 178.55 1129.62 81.38 1233.62 129.38"/><polygon class="cls-2" points="1069.92 145.07 1129.62 81.38 1144.41 178.55 1069.92 145.07"/><polygon class="cls-2" points="1233.62 129.38 1228.38 249.97 1144.41 178.55 1233.62 129.38"/><polygon class="cls-33" points="1406.1 281.41 1228.38 249.97 1233.62 129.38 1406.1 281.41"/><polygon class="cls-2" points="1312.36 321.39 1228.38 249.97 1406.1 281.41 1312.36 321.39"/><polygon class="cls-33" points="1525.23 469.34 1312.36 321.39 1406.1 281.41 1525.23 469.34"/><polygon class="cls-2" points="1406.1 459.77 1525.23 469.34 1312.36 321.39 1406.1 459.77"/><polygon class="cls-34" points="1490.91 678.5 1525.23 469.34 1406.1 459.77 1490.91 678.5"/><polygon class="cls-2" points="1579.16 635.02 1490.91 678.5 1525.23 469.34 1579.16 635.02"/><polygon class="cls-34" points="1595.81 797.9 1490.91 678.5 1579.16 635.02 1595.81 797.9"/><polygon class="cls-35" points="1490.91 834.73 1490.91 678.5 1595.81 797.9 1490.91 834.73"/><polygon class="cls-34" points="1522.15 950.79 1490.91 834.73 1595.81 797.9 1522.15 950.79"/><polygon class="cls-36" points="1406.1 932.93 1522.15 950.79 1490.91 834.73 1406.1 932.93"/><polygon class="cls-34" points="1352.2 1043.64 1406.1 932.93 1522.15 950.79 1352.2 1043.64"/><polygon class="cls-36" points="1071.31 1035.6 1352.2 1043.64 1406.1 932.93 1071.31 1035.6"/><polygon class="cls-34" points="1116.15 1103.83 1071.31 1035.6 1352.2 1043.64 1116.15 1103.83"/><polygon class="cls-36" points="906.15 1057.92 1116.15 1103.83 1071.31 1035.6 906.15 1057.92"/><polygon class="cls-34" points="797.9 1128.41 906.15 1057.92 1116.15 1103.83 797.9 1128.41"/><polygon class="cls-36" points="797.9 1057.92 906.15 1057.92 797.9 1128.41 797.9 1057.92"/><path class="cls-67" d="M417.05,565.89c-5.13,6.94,0,49.1,0,49.1l38.11-19.21Z" transform="translate(-71.11 -83.8)"/><path class="cls-67" d="M1390.1,590.44c-5.13,6.94,0,49.1,0,49.1l38.11-19.21Z" transform="translate(-71.11 -83.8)"/></svg>